<?xml version="1.0" encoding="UTF-8"?>
<svg xmlns="http://www.w3.org/2000/svg" version="1.1" xmlns:xlink="http://www.w3.org/1999/xlink" viewBox="0 0 150 150">
  <defs>
    <style>
      .cls-1 {
        fill: #fff;
      }

      .cls-2 {
        fill: url(#Gradiente_sem_nome_29);
      }
    </style>
    <linearGradient id="Gradiente_sem_nome_29" data-name="Gradiente sem nome 29" x1="145.5" y1="145.32" x2="5.34" y2="5.15" gradientUnits="userSpaceOnUse">
      <stop offset="0" stop-color="#0db0d3"/>
      <stop offset=".7" stop-color="#20c368"/>
    </linearGradient>
  </defs>
  <g>
    <g id="Camada_1">
      <rect class="cls-2" x=".42" y=".23" width="150" height="150" rx="16.79" ry="16.79"/>
      <path class="cls-1" d="M75.4,139.04c-1.38-1.56-2.68-3.01-3.97-4.47-6.67-7.53-13.29-15.11-19.78-22.81-4.36-5.17-8.69-10.37-12.85-15.71-4.21-5.4-7.25-11.39-9.04-18.01-1.04-3.84-1.64-7.74-1.93-11.7-.19-2.52-.24-5.05-.07-7.57.42-6.15,1.84-12.05,4.53-17.61,4.28-8.86,10.65-15.83,19.14-20.82,5.19-3.05,10.78-5.01,16.72-5.93,3.76-.58,7.54-.73,11.33-.39,11.87,1.08,22,5.87,30.3,14.4,6.66,6.84,10.85,15.02,12.59,24.41.77,4.17.95,8.41.7,12.66-.2,3.36-.63,6.69-1.32,9.98-1.63,7.8-5.05,14.74-9.98,20.97-8.51,10.75-17.4,21.17-26.47,31.45-3.13,3.55-6.29,7.07-9.44,10.6-.14.16-.27.32-.46.55ZM75.42,102.23c22.45.06,40.67-18.07,40.65-40.5-.01-22.27-17.92-40.21-39.98-40.45-22.57-.25-40.68,17.93-40.97,39.86-.31,22.82,18.14,41.03,40.3,41.1Z"/>
      <g>
        <path class="cls-1" d="M75.77,90.61c-.15-.19-.26-.32-.37-.47-1-1.34-1.88-2.75-2.71-4.2-1.44-2.51-2.72-5.1-3.92-7.73-1.34-2.95-2.56-5.95-3.65-9.01-.76-2.13-1.47-4.29-2.07-6.48-.45-1.67-.89-3.36-1.28-5.05-.39-1.7-.69-3.42-.9-5.16-.18-1.51-.31-3.01-.33-4.53,0-.09,0-.18,0-.27,0-.02.02-.03.04-.07.06.02.12.03.18.06,2.25,1.18,4.61,2.07,7.08,2.68,1.67.42,3.36.7,5.07.86,1.42.13,2.85.16,4.27.1,1.55-.06,3.08-.24,4.6-.53,1.75-.33,3.46-.79,5.14-1.4,1.28-.46,2.54-1,3.76-1.6.05-.03.11-.05.16-.07.11.08.08.19.07.28-.04.95-.07,1.91-.14,2.86-.15,1.95-.47,3.88-.85,5.81-.42,2.09-.94,4.15-1.49,6.2-.29,1.07-.6,2.12-.93,3.17-.72,2.26-1.53,4.48-2.4,6.68-.82,2.08-1.7,4.14-2.65,6.17-1.71,3.65-3.57,7.22-5.87,10.54-.26.37-.53.73-.82,1.14Z"/>
        <path class="cls-1" d="M75.88,47.63c-1.98.01-3.8-.5-5.39-1.68-1.85-1.37-3.11-3.17-3.55-5.44-.57-2.95.12-5.6,2.1-7.88,1.25-1.43,2.81-2.37,4.66-2.77,3.11-.68,5.87.05,8.23,2.21,1.45,1.33,2.33,2.98,2.68,4.91.51,2.79-.17,5.3-1.98,7.48-1.2,1.44-2.73,2.38-4.5,2.94-.72.23-1.48.25-2.24.25Z"/>
        <path class="cls-1" d="M81.36,90.37c.01-.16.01-.3.03-.43.17-1.05.41-2.09.71-3.11.77-2.62,1.73-5.17,2.83-7.68,1.01-2.31,2.15-4.56,3.45-6.72.99-1.64,2.08-3.22,3.37-4.65.23-.25.48-.48.75-.73,2.08,6.01,6.04,10.17,12.15,12.26-.28.26-.51.49-.75.71-1.77,1.6-3.75,2.9-5.8,4.08-2.65,1.52-5.42,2.8-8.27,3.9-2,.77-4.05,1.44-6.14,1.94-.71.17-1.44.29-2.15.43-.04,0-.08,0-.17,0Z"/>
        <path class="cls-1" d="M70.21,90.4c-.55-.11-1.05-.19-1.55-.3-2.38-.52-4.68-1.28-6.95-2.16-3.05-1.18-6-2.56-8.82-4.21-1.73-1.02-3.41-2.12-4.93-3.45-.31-.27-.61-.55-.91-.83-.04-.04-.07-.09-.13-.18.12-.05.21-.1.31-.13,1.46-.5,2.84-1.15,4.14-2,2.81-1.83,4.97-4.24,6.48-7.22.37-.72.65-1.49.96-2.24.1-.23.25-.36.49-.35.07,0,.16.07.21.14.58.69,1.18,1.37,1.72,2.09,1.29,1.72,2.38,3.57,3.39,5.47,1.28,2.42,2.37,4.92,3.37,7.46.57,1.44,1.05,2.9,1.47,4.39.3,1.07.58,2.15.73,3.26,0,.07,0,.13.01.26Z"/>
        <path class="cls-1" d="M49.31,64.36c2.78.04,5.1,2.19,5.12,5.16.02,3.05-2.51,5.09-5.14,5.09-2.57,0-5.12-2.09-5.11-5.13.01-2.8,2.29-5.09,5.13-5.12Z"/>
        <path class="cls-1" d="M102.25,74.57c-3.21-.02-5.1-2.43-5.16-4.94-.07-2.61,1.99-5.24,5.1-5.26,2.72-.02,5.16,2.08,5.13,5.18-.02,2.92-2.21,5-5.07,5.02Z"/>
      </g>
    </g>
  </g>
</svg>