<?xml version="1.0" encoding="UTF-8"?>
<svg id="Camada_1" xmlns="http://www.w3.org/2000/svg" version="1.1" viewBox="0 0 1192 338">
  <defs>
    <style>
      .st0 {
        fill: #44bfe2;
      }

      .st1 {
        fill: #fff;
      }

      .st2 {
        fill: none;
      }

      .st3 {
        fill: #5bb357;
      }
    </style>
  </defs>
  <g>
    <g>
      <polygon class="st2" points="177 121.9 186.2 115.4 177 121.9 177 121.9"/>
      <polygon class="st2" points="143 96.8 107.1 92.4 143 96.8 143 96.8"/>
      <path class="st3" d="M183.8,124.3c.9-3,1.7-6,2.4-9l-9.2,6.6h0l9.2-6.6c2.9-11.9,4.7-23.3,4.7-33.1v-.6c-2.1,1.1-4.3,2.1-6.5,3-10.9,4.6-22.9,7.2-35.4,7.2s-.9,0-1.3,0c-2.5,0-5-.2-7.4-.4-12.1-1.2-23.5-4.7-33.7-10.1,0,.3,0,.6,0,.9,0,3.2.2,6.6.6,10.1l35.9,4.4h0l-35.9-4.4c0,0,0,0,0,.2,1.1,10.5,3.8,22.3,7.3,34.1,3.4,11.5,7.7,23,12.3,33.7,2.6,6,5.2,11.7,7.9,16.9,1,1.9,2,3.9,2.9,5.7,4,7.3,7.8,13.4,11.2,17.7,3.3-4.3,6.9-10,10.6-16.6,7-12.7,14.3-28.9,20.1-45.7,1.6-4.6,3.1-9.3,4.4-13.9h0Z"/>
      <path class="st3" d="M208.1,156.4c-6.1-6.1-10.4-13.5-12.8-21.3-.1.1-.2.2-.4.4-4.6,4.6-9.1,11.1-13.2,18.4-6.1,10.8-11.2,23.2-14.4,33.3-1.6,5-2.6,9.4-3,12.8,5.3-.7,12.7-2.7,20.7-5.6.8-.3,1.6-.6,2.5-.9,1.8-.7,3.6-1.4,5.4-2.2,13.6-5.7,27.6-13.6,35.8-21.8,0,0,.2-.2.2-.3-2.1-.7-4.3-1.5-6.3-2.5-5.3-2.5-10.3-5.9-14.6-10.2h0Z"/>
      <path class="st3" d="M232.3,132c-5.6-5.6-14.5-5.6-20.1,0-.6.6-1,1.2-1.5,1.8-4,5.6-3.5,13.3,1.5,18.3s14.5,5.6,20.1,0c2.6-2.6,3.9-5.9,4.1-9.2.2-3.9-1.1-7.9-4.1-10.9Z"/>
      <path class="st3" d="M131.8,74.7c4.4,4.1,10.4,6.6,16.9,6.6s8.2-1.1,11.8-2.9c4.7-2.5,8.5-6.5,10.9-11.4,1.5-3.2,2.4-6.9,2.4-10.7s-1-7.9-2.7-11.3c-4.1-8.1-12.6-13.7-22.3-13.7s-18.2,5.6-22.3,13.7c-1.7,3.4-2.7,7.2-2.7,11.3s0,1.7.1,2.6c.6,6.3,3.6,11.8,8,15.8h0Z"/>
      <path class="st3" d="M127.4,178.7c-5.4-14.4-13.8-31.1-22.7-41.1-.5-.5-.9-1.1-1.4-1.6l-1.3.3c-2.4,7.3-6.6,14.2-12.4,20.1-6.1,6.1-13.3,10.3-20.9,12.7,0,0,.2.2.2.3,3,3,6.8,6,11.1,8.8,3.9,2.6,8.3,5.1,12.8,7.4,13.8,7.1,29.1,12.4,38.8,14.1.6.1,1.2.2,1.8.3-.1-1.1-.3-2.3-.6-3.6-1-4.8-2.8-11-5.3-17.7h0Z"/>
      <path class="st3" d="M85.4,152.1c3.6-3.6,4.8-8.5,3.8-13.1-.6-2.6-1.8-5-3.8-7-5.6-5.6-14.5-5.6-20.1,0-3.5,3.5-4.8,8.3-3.9,12.8.5,2.7,1.8,5.2,3.9,7.2,5.6,5.6,14.5,5.6,20.1,0Z"/>
    </g>
    <path class="st0" d="M271.2,104.6c-1.3-8.3-3.5-16.3-6.4-24-5.5-14.7-13.7-28-23.9-39.4-1.9-2.2-4-4.2-6.1-6.3-3.2-3.1-6.6-6-10.1-8.7-10.2-7.9-21.6-14.3-33.9-18.7-5-1.8-10.1-3.3-15.4-4.4-7.9-1.7-16.2-2.7-24.6-2.9-.7,0-1.4,0-2.1,0-6.8,0-13.4.6-19.8,1.6-5.1.8-10.1,2-15,3.4-12.3,3.6-23.9,9.1-34.3,16.1-5.2,3.5-10.2,7.4-14.8,11.7-4.3,4-8.3,8.2-12,12.7-5.4,6.6-10.1,13.8-14.1,21.4-6.5,12.4-10.9,26.1-12.8,40.6-.4,2.8-.7,5.6-.9,8.4-.2,2.8-.3,5.6-.3,8.4,0,11.7,1.2,22.8,3.3,33.3.4,2,.8,3.9,1.3,5.9.2.8.5,1.6.7,2.4,4.3,16.4,11.8,31.7,22,45.2.5.6.9,1.3,1.4,1.9,3.4,4.3,6.9,8.7,10.5,13.2,4.5,5.6,9.2,11.2,13.9,16.9,8.6,10.3,17.3,20.6,25.6,30.2,3.3,3.9,6.6,7.7,9.8,11.3,4.3,5,8.4,9.7,12.2,14,8.9,10.1,15.9,18,19.8,22.4,2.2,2.4,3.4,3.8,3.4,3.8,0,0,3.4-3.8,9.1-10.1,3.8-4.3,8.6-9.7,14.1-15.9,2.2-2.5,4.5-5.1,6.9-7.8,8.6-9.8,18.3-21,28.2-32.7,12.1-14.3,24.5-29.2,35.3-42.9.6-.8,1.2-1.5,1.8-2.3,2.1-2.6,4-5.4,5.9-8.2,1.6-2.4,3.1-4.8,4.5-7.2,6.2-10.7,10.9-22.1,13.7-34.2.3-1.4.7-2.9,1-4.3,2-9.5,3.2-19.4,3.5-29.9,0-1.7,0-3.3,0-5,0-6.8-.6-13.4-1.6-19.9h0ZM249.9,153.4c-.9,3.3-2,6.5-3.3,9.6-5.8,14.7-14.9,27.8-26.3,38.4-11.8,11-26.2,19.2-42.1,23.8-9.2,2.7-19,4.1-29.1,4.1s-15.7-.9-23.2-2.6c-2.4-.6-4.8-1.2-7.2-1.9-17.8-5.4-33.6-15.4-46-28.6-.1-.1-.2-.2-.3-.3-.6-.7-1.2-1.4-1.9-2.1-10.1-11.5-17.8-25.2-22.1-40.3-2.7-9.2-4.1-18.9-4.1-29s0-1.6,0-2.3c.2-7.3,1.1-14.5,2.7-21.4,1.6-7.1,4-13.9,7-20.3,5.1-11,12.1-21,20.5-29.5,3.2-3.2,6.5-6.2,10.1-9,11.4-8.9,24.7-15.6,39.2-19.2,8.1-2,16.6-3.1,25.3-3.1s7.1.2,10.7.5c5.8.6,11.5,1.7,17.1,3.2,13.9,3.8,26.7,10.4,37.6,19.2,7,5.6,13.3,12.1,18.7,19.3,5.7,7.7,10.4,16.2,13.9,25.3,1.8,4.7,3.2,9.6,4.4,14.5,1.6,7.3,2.5,14.9,2.5,22.7s-1,16.7-2.9,24.6c-.4,1.5-.7,2.9-1.1,4.3h0Z"/>
  </g>
  <g>
    <path class="st1" d="M386.7,213.1v20.9h-80.2V99.4h78.1v20.7h-56v35.1h51v20.2h-51v37.6h58.1Z"/>
    <path class="st1" d="M404.7,93h21.3v140.9h-21.3V93Z"/>
    <path class="st1" d="M548.2,182.3c0,2.3-.2,4.7-.4,7h-84.2c2.7,16.8,14.8,27.1,31.8,27.1s22.4-5.7,27.9-15.2h22.5c-8.3,21.9-27.2,35.2-50.4,35.2s-53.3-23.4-53.3-54.4,22.9-54.4,53.3-54.4,52.9,24.4,52.9,54.6h0ZM495.3,146.9c-16,0-27.7,9.7-31.2,25.1h62.7c-3.8-15.8-15.7-25.1-31.5-25.1h0Z"/>
    <path class="st1" d="M563.8,92.1h22v22h-22v-22ZM564.1,130.2h21.3v103.7h-21.3v-103.7Z"/>
    <path class="st1" d="M667.1,214.5v19.4h-15.8c-22.7,0-36.8-14-36.8-36.9v-48.5h-18.5v-4.1l36.1-38.4h3.6v24.2h30.9v18.3h-30.7v46.8c0,12.4,6.9,19.2,19.4,19.2h11.8Z"/>
    <path class="st1" d="M727.8,236.4c-31.7,0-55.5-23.2-55.5-54.4s23.7-54.4,55.5-54.4,55.5,23.2,55.5,54.4-23.8,54.4-55.5,54.4h0ZM761.5,182c0-19.9-14.1-34-33.8-34s-33.8,14.2-33.8,34,14.1,34,33.8,34,33.8-14.2,33.8-34Z"/>
    <path class="st1" d="M858.2,129.6v20.1h-11.3c-17.6,0-26.4,10.1-26.4,28.9v55.3h-21.3v-103.7h14.4l3.6,14.2c7.4-9.8,17.6-14.7,31.8-14.7h9.2Z"/>
    <path class="st1" d="M925,128.1c30.8,0,52.9,23.1,52.9,54s-22.1,54-52.9,54-35.2-9.3-44.5-23.8v58.5h-9.4v-140.5h6.8l2,22.6c9.2-15.1,25.6-24.7,45-24.7h0ZM968.4,182c0-25.9-18.5-44.8-44-44.8s-44.2,19.2-44.2,44.8,19,44.8,44.2,44.8,44-18.9,44-44.8h0Z"/>
    <path class="st1" d="M1051.7,129.8v9h-9.7c-20.8,0-34.1,15.3-34.1,37.4v57.7h-9.4v-103.7h7l1.7,20.5c6.9-13,19-20.8,35.5-20.8h9Z"/>
    <path class="st1" d="M1052,182c0-31.1,23.3-54,54.3-54s54.3,23.1,54.3,54-23.2,54-54.3,54-54.3-23.1-54.3-54h0ZM1106.3,226.9c25.8,0,44.7-19.1,44.7-44.8s-19-44.8-44.7-44.8-44.7,19-44.7,44.8,19.1,44.8,44.7,44.8h0Z"/>
  </g>
</svg>